<?xml version="1.0" encoding="iso-8859-1"?>
<!-- Generator: Adobe Illustrator 19.0.0, SVG Export Plug-In . SVG Version: 6.00 Build 0)  -->
<svg xmlns="http://www.w3.org/2000/svg" xmlns:xlink="http://www.w3.org/1999/xlink" version="1.1" id="Layer_1" x="0px" y="0px" viewBox="0 0 449.449 449.449" style="enable-background:new 0 0 449.449 449.449;" xml:space="preserve" width="512" height="512">
<g>
	<path style="fill:#CCCCCC;" d="M326.508,426.649c0,3.73-0.89,7.25-2.48,10.35c-3.77,7.39-11.45,12.45-20.31,12.45   c-8.87,0-16.55-5.06-20.32-12.45c-1.59-3.1-2.48-6.62-2.48-10.35H326.508z"/>
	<path style="fill:#CCCCCC;" d="M168.538,426.649c0,3.73-0.89,7.25-2.48,10.35c-3.78,7.39-11.46,12.45-20.32,12.45   s-16.55-5.06-20.32-12.45c-1.59-3.1-2.49-6.62-2.49-10.35H168.538z"/>
	<path style="fill:#B3B3B3;" d="M122.928,426.649h45.61c0,3.73-0.89,7.25-2.48,10.35h-40.64   C123.828,433.899,122.928,430.379,122.928,426.649z"/>
	<path style="fill:#B3B3B3;" d="M326.508,426.649c0,3.73-0.89,7.25-2.48,10.35h-40.63c-1.59-3.1-2.48-6.62-2.48-10.35H326.508z"/>
	<rect x="186.125" y="340.298" style="fill:#B3B3B3;" width="27.127" height="12"/>
	<path style="fill:#CCCCCC;" d="M129.268,287.019v12h-13.38c-18.18,0-32.98-14.8-32.98-32.98v-66.98h12v66.98   c0,11.57,9.41,20.98,20.98,20.98H129.268z"/>
	<path style="fill:#CCCCCC;" d="M366.538,199.059v66.98c0,18.18-14.79,32.98-32.98,32.98h-13.38v-12h13.38   c11.57,0,20.98-9.41,20.98-20.98v-66.98H366.538z"/>
	<rect x="205.177" y="291.018" style="fill:#CCCCCC;" width="39.09" height="119.18"/>
	<rect x="205.177" y="291.018" style="fill:#B3B3B3;" width="39.09" height="35.722"/>
	<path style="fill:#666666;" d="M192.791,346.298v10.366c0,2.276-1.845,4.121-4.121,4.121h-12.454c-2.276,0-4.121-1.845-4.121-4.121   v-22.802c0-2.276,1.845-4.121,4.121-4.121h12.454c2.276,0,4.121,1.845,4.121,4.121V346.298z"/>
	<rect x="205.179" y="192.558" style="fill:#CCCCCC;" width="39.085" height="67.97"/>
	<path style="fill:#666666;" d="M337.367,428.039v1.273h-10.855h-45.594H168.536h-45.605h-10.845v-1.273   c0-14.27,11.569-25.84,25.84-25.84h67.253h39.085h67.264C325.798,402.2,337.367,413.769,337.367,428.039z"/>
	<path style="opacity:0.44;fill:#4D4D4D;" d="M178.423,402.2h-40.498c-14.27,0-25.84,11.569-25.84,25.84v1.273h10.845h29.653v-1.273   C152.584,413.769,164.153,402.2,178.423,402.2z"/>
	<path style="fill:#666666;" d="M340.358,272.681v12.159c0,7.834-6.343,14.177-14.177,14.177h-81.917h-39.085h-81.917   c-7.823,0-14.177-6.343-14.177-14.177v-12.159c0-13.339,10.814-24.153,24.153-24.153h71.941h39.085h71.951   C329.544,248.528,340.358,259.342,340.358,272.681z"/>
	<rect x="205.177" y="194.821" style="fill:#B3B3B3;" width="39.09" height="25.507"/>
	<path style="opacity:0.44;fill:#4D4D4D;" d="M137.583,284.84v-12.159c0-13.339,10.814-24.153,24.153-24.153h-28.499   c-13.339,0-24.153,10.814-24.153,24.153v12.159c0,7.834,6.354,14.177,14.177,14.177h28.499   C143.937,299.017,137.583,292.674,137.583,284.84z"/>
	<path style="fill:#666666;" d="M317.592,50.241v129.202c0,13.867-11.249,25.115-25.115,25.115h-48.213h-39.085h-48.213   c-13.867,0-25.105-11.249-25.105-25.115V50.241C131.861,22.497,154.348,0,182.102,0h85.249   C295.095,0,317.592,22.497,317.592,50.241z"/>
	<path style="opacity:0.44;fill:#4D4D4D;" d="M157.36,179.443V50.241C157.36,22.497,179.847,0,207.601,0h-25.499   c-27.754,0-50.241,22.497-50.241,50.241v129.202c0,13.867,11.238,25.115,25.105,25.115h25.499   C168.598,204.558,157.36,193.31,157.36,179.443z"/>
	<rect x="82.908" y="199.059" style="fill:#B3B3B3;" width="12" height="15.34"/>
	<rect x="354.538" y="199.059" style="fill:#B3B3B3;" width="12" height="15.34"/>
	<path style="fill:#666666;" d="M109.088,205.061H68.732v-15.468c0-6.03,4.888-10.918,10.918-10.918H98.17   c6.03,0,10.918,4.888,10.918,10.918V205.061z"/>
	<path style="fill:#666666;" d="M340.36,205.061h40.356v-15.468c0-6.03-4.888-10.918-10.918-10.918h-18.519   c-6.03,0-10.918,4.888-10.918,10.918V205.061z"/>
</g>















</svg>
